<svg width="1052.3622" height="744.09448" xmlns="http://www.w3.org/2000/svg">

 <metadata id="metadata7">image/svg+xml</metadata>
 <g>
  <title>background</title>
  <rect fill="none" id="canvas_background" height="402" width="582" y="-1" x="-1"/>
 </g>
 <g>
  <title>Layer 1</title>
  <g stroke="null" id="layer1">
   <g fill="#47848f" fill-rule="evenodd" transform="matrix(4.210055452564684,0,0,4.210055452564684,367.2416618324155,463.7564356434472) " id="g8">
    <g stroke="null" id="g10"/>
    <g stroke="null" id="g14">
     <path stroke="null" d="m18.552333,-65.908715c-19.50411,-3.55235 -34.92523,0.16566 -41.07136,10.81107c-4.58638,7.94384 -3.2754,18.47605 3.17938,29.73434c0.5494,0.95825 1.77159,1.28968 2.72983,0.74029c0.95825,-0.5494 1.28969,-1.77159 0.74029,-2.72984c-5.81455,-10.14159 -6.94597,-19.23129 -3.1854,-25.74479c5.10561,-8.84319 18.86099,-12.15959 36.89052,-8.87581c1.08669,0.19792 2.12808,-0.52257 2.326,-1.60926c0.19792,-1.08669 -0.52257,-2.12808 -1.60926,-2.326l0,0zm-27.74919,54.22978c7.88637,8.66654 18.13209,16.79532 29.81675,23.54146c28.29257,16.33472 58.412,20.70079 73.25611,10.57924c0.91261,-0.62227 1.14797,-1.86654 0.5257,-2.77915c-0.62227,-0.9126 -1.86653,-1.14797 -2.77914,-0.5257c-13.2853,9.05867 -41.89658,4.91122 -69.00267,-10.73849c-11.33543,-6.54452 -21.25665,-14.41585 -28.8583,-22.76949c-0.74341,-0.81696 -2.00834,-0.87657 -2.82529,-0.13316c-0.81695,0.74341 -0.87657,2.00833 -0.13316,2.82529l0,0z" id="path16"/>
     <path stroke="null" d="m89.140753,-14.111975c12.77082,-15.08673 17.22994,-30.26059 11.09647,-40.88408c-4.51312,-7.81696 -14.054,-11.94399 -26.73367,-12.10889c-1.10448,-0.01436 -2.01147,0.86935 -2.02584,1.97383c-0.0144,1.10447 0.86935,2.01147 1.97382,2.02584c11.40377,0.1483 19.62343,3.70382 23.32159,10.10922c5.09458,8.82408 1.11803,22.35578 -10.68541,36.2997c-0.71365,0.84308 -0.60874,2.10505 0.23433,2.81871c0.84308,0.71365 2.10505,0.60874 2.81871,-0.23433l0,0zm-32.82086,-51.13076c-11.54692,2.47398 -23.83758,7.3111 -35.64134,14.12601c-29.20673,16.86251 -48.25894,41.72689 -45.61291,59.75582c0.1604,1.09286 1.17636,1.84877 2.26922,1.68838c1.09287,-0.1604 1.84878,-1.17636 1.68838,-2.26922c-2.34939,-16.00779 15.71024,-39.57679 43.65531,-55.71088c11.45058,-6.611 23.35122,-11.29463 34.47934,-13.67888c1.08006,-0.23141 1.76803,-1.29456 1.53662,-2.37462c-0.23141,-1.08005 -1.29456,-1.76802 -2.37462,-1.53661l0,0z" id="path18"/>
     <path stroke="null" d="m9.003883,21.138435c6.67718,18.64509 17.60104,30.12475 29.88454,30.12475c8.95859,0 17.24704,-6.10679 23.71033,-16.85826c0.5691,-0.94668 0.26301,-2.17546 -0.68367,-2.74456c-0.94667,-0.5691 -2.17546,-0.26301 -2.74455,0.68367c-5.80855,9.66233 -12.94338,14.91915 -20.28211,14.91915c-10.2036,0 -19.94672,-10.23885 -26.11874,-27.47336c-0.37241,-1.0399 -1.51731,-1.581 -2.55721,-1.2086c-1.0399,0.37241 -1.581,1.51731 -1.20859,2.55721l0,0zm60.99114,-3.64719c3.45665,-11.04614 5.31315,-23.78887 5.31315,-37.06755c0,-33.13408 -11.59678,-61.6969 -28.11484,-69.03142c-1.00953,-0.44826 -2.19129,0.0067 -2.63955,1.01626c-0.44826,1.00952 0.0067,2.19129 1.01626,2.63955c14.73212,6.54151 25.73813,33.64928 25.73813,65.37561c0,12.88248 -1.79787,25.22283 -5.1306,35.87296c-0.32988,1.05416 0.25727,2.17615 1.31143,2.50602c1.05416,0.32988 2.17615,-0.25727 2.50602,-1.31143l0,0z" id="path20"/>
     <path stroke="null" d="m107.662733,15.531835c0,-5.28666 -4.28569,-9.57234 -9.57234,-9.57234c-5.28666,0 -9.57235,4.28568 -9.57235,9.57234c0,5.28666 4.28569,9.57235 9.57235,9.57235c5.28665,0 9.57234,-4.28569 9.57234,-9.57235l0,0zm-4,0c0,3.07752 -2.49482,5.57235 -5.57234,5.57235c-3.07752,0 -5.57235,-2.49483 -5.57235,-5.57235c0,-3.07752 2.49483,-5.57234 5.57235,-5.57234c3.07752,0 5.57234,2.49482 5.57234,5.57234l0,0z" id="path22"/>
     <path stroke="null" d="m-20.451217,25.104185c5.28666,0 9.57235,-4.28569 9.57235,-9.57235c0,-5.28666 -4.28569,-9.57234 -9.57235,-9.57234c-5.28666,0 -9.57234,4.28568 -9.57234,9.57234c0,5.28666 4.28568,9.57235 9.57234,9.57235l0,0zm0,-4c-3.07752,0 -5.57234,-2.49483 -5.57234,-5.57235c0,-3.07752 2.49482,-5.57234 5.57234,-5.57234c3.07752,0 5.57235,2.49482 5.57235,5.57234c0,3.07752 -2.49483,5.57235 -5.57235,5.57235l0,0z" id="path24"/>
     <path stroke="null" d="m38.888423,-78.843455c5.28666,0 9.57235,-4.28568 9.57235,-9.57234c0,-5.28666 -4.28569,-9.57235 -9.57235,-9.57235c-5.28666,0 -9.57234,4.28569 -9.57234,9.57235c0,5.28666 4.28568,9.57234 9.57234,9.57234l0,0zm0,-4c-3.07752,0 -5.57234,-2.49482 -5.57234,-5.57234c0,-3.07752 2.49482,-5.57235 5.57234,-5.57235c3.07752,0 5.57235,2.49483 5.57235,5.57235c0,3.07752 -2.49483,5.57234 -5.57235,5.57234l0,0z" id="path26"/>
     <path stroke="null" d="m40.350533,-12.806855c-3.73885,0.80784 -7.42236,-1.56826 -8.23179,-5.30711c-0.80626,-3.73885 1.56826,-7.42236 5.30711,-8.23179c3.73884,-0.80784 7.42236,1.56827 8.23178,5.30711c0.80785,3.73885 -1.56826,7.42236 -5.3071,8.23179z" id="path28"/>
    </g>
   </g>
  </g>
 </g>
</svg>